<mxfile host="app.diagrams.net" modified="2022-08-17T01:51:00.266Z" agent="5.0 (Windows NT 10.0; Win64; x64) AppleWebKit/537.36 (KHTML, like Gecko) Chrome/104.0.0.0 Safari/537.36" etag="Km3tIm49w6yeIp-Gdvrd" version="20.2.4" type="github">
  <diagram id="COtQuLB4Gv-aUHqPOwAM" name="Página-1">
    <mxGraphModel dx="2249" dy="1931" grid="1" gridSize="10" guides="1" tooltips="1" connect="1" arrows="1" fold="1" page="1" pageScale="1" pageWidth="827" pageHeight="1169" math="0" shadow="0">
      <root>
        <mxCell id="0" />
        <mxCell id="1" parent="0" />
        <mxCell id="FS7-3Iy2ylldMN2UK_3b-5" value="CLIENTE" style="swimlane;fontStyle=0;childLayout=stackLayout;horizontal=1;startSize=26;fillColor=none;horizontalStack=0;resizeParent=1;resizeParentMax=0;resizeLast=0;collapsible=1;marginBottom=0;" parent="1" vertex="1">
          <mxGeometry x="-760" y="-850" width="140" height="160" as="geometry" />
        </mxCell>
        <mxCell id="FS7-3Iy2ylldMN2UK_3b-6" value="+ID" style="text;strokeColor=none;fillColor=none;align=left;verticalAlign=top;spacingLeft=4;spacingRight=4;overflow=hidden;rotatable=0;points=[[0,0.5],[1,0.5]];portConstraint=eastwest;" parent="FS7-3Iy2ylldMN2UK_3b-5" vertex="1">
          <mxGeometry y="26" width="140" height="26" as="geometry" />
        </mxCell>
        <mxCell id="FS7-3Iy2ylldMN2UK_3b-7" value="+Dirección de Entrega" style="text;strokeColor=none;fillColor=none;align=left;verticalAlign=top;spacingLeft=4;spacingRight=4;overflow=hidden;rotatable=0;points=[[0,0.5],[1,0.5]];portConstraint=eastwest;" parent="FS7-3Iy2ylldMN2UK_3b-5" vertex="1">
          <mxGeometry y="52" width="140" height="26" as="geometry" />
        </mxCell>
        <mxCell id="FS7-3Iy2ylldMN2UK_3b-8" value="+ E- Mail&#xa;&#xa; +Celular&#xa;+ Método de Pago" style="text;strokeColor=none;fillColor=none;align=left;verticalAlign=top;spacingLeft=4;spacingRight=4;overflow=hidden;rotatable=0;points=[[0,0.5],[1,0.5]];portConstraint=eastwest;" parent="FS7-3Iy2ylldMN2UK_3b-5" vertex="1">
          <mxGeometry y="78" width="140" height="82" as="geometry" />
        </mxCell>
        <mxCell id="FS7-3Iy2ylldMN2UK_3b-10" value="ORDEN / CARRITO" style="swimlane;fontStyle=0;childLayout=stackLayout;horizontal=1;startSize=26;fillColor=none;horizontalStack=0;resizeParent=1;resizeParentMax=0;resizeLast=0;collapsible=1;marginBottom=0;" parent="1" vertex="1">
          <mxGeometry x="-440" y="-865" width="140" height="190" as="geometry" />
        </mxCell>
        <mxCell id="FS7-3Iy2ylldMN2UK_3b-11" value="+ ID" style="text;strokeColor=none;fillColor=none;align=left;verticalAlign=top;spacingLeft=4;spacingRight=4;overflow=hidden;rotatable=0;points=[[0,0.5],[1,0.5]];portConstraint=eastwest;" parent="FS7-3Iy2ylldMN2UK_3b-10" vertex="1">
          <mxGeometry y="26" width="140" height="26" as="geometry" />
        </mxCell>
        <mxCell id="FS7-3Iy2ylldMN2UK_3b-12" value="Cantidad Productos" style="text;strokeColor=none;fillColor=none;align=left;verticalAlign=top;spacingLeft=4;spacingRight=4;overflow=hidden;rotatable=0;points=[[0,0.5],[1,0.5]];portConstraint=eastwest;" parent="FS7-3Iy2ylldMN2UK_3b-10" vertex="1">
          <mxGeometry y="52" width="140" height="26" as="geometry" />
        </mxCell>
        <mxCell id="FS7-3Iy2ylldMN2UK_3b-13" value="+Monto Total&#xa;&#xa;+Fecha&#xa;+Forma de Pago&#xa;+Subtotal&#xa;+Costo Envío" style="text;strokeColor=none;fillColor=none;align=left;verticalAlign=top;spacingLeft=4;spacingRight=4;overflow=hidden;rotatable=0;points=[[0,0.5],[1,0.5]];portConstraint=eastwest;" parent="FS7-3Iy2ylldMN2UK_3b-10" vertex="1">
          <mxGeometry y="78" width="140" height="112" as="geometry" />
        </mxCell>
        <mxCell id="FS7-3Iy2ylldMN2UK_3b-14" value="PRODUCTO" style="swimlane;fontStyle=0;childLayout=stackLayout;horizontal=1;startSize=26;fillColor=none;horizontalStack=0;resizeParent=1;resizeParentMax=0;resizeLast=0;collapsible=1;marginBottom=0;" parent="1" vertex="1">
          <mxGeometry x="-230" y="-1020" width="140" height="170" as="geometry" />
        </mxCell>
        <mxCell id="FS7-3Iy2ylldMN2UK_3b-15" value="+ ID" style="text;strokeColor=none;fillColor=none;align=left;verticalAlign=top;spacingLeft=4;spacingRight=4;overflow=hidden;rotatable=0;points=[[0,0.5],[1,0.5]];portConstraint=eastwest;" parent="FS7-3Iy2ylldMN2UK_3b-14" vertex="1">
          <mxGeometry y="26" width="140" height="26" as="geometry" />
        </mxCell>
        <mxCell id="FS7-3Iy2ylldMN2UK_3b-16" value="Categoría" style="text;strokeColor=none;fillColor=none;align=left;verticalAlign=top;spacingLeft=4;spacingRight=4;overflow=hidden;rotatable=0;points=[[0,0.5],[1,0.5]];portConstraint=eastwest;" parent="FS7-3Iy2ylldMN2UK_3b-14" vertex="1">
          <mxGeometry y="52" width="140" height="26" as="geometry" />
        </mxCell>
        <mxCell id="FS7-3Iy2ylldMN2UK_3b-17" value="+Nombre&#xa;+Descripcion&#xa;+Precio&#xa;+Cantidad Vendidos&#xa;+Imagen" style="text;strokeColor=none;fillColor=none;align=left;verticalAlign=top;spacingLeft=4;spacingRight=4;overflow=hidden;rotatable=0;points=[[0,0.5],[1,0.5]];portConstraint=eastwest;" parent="FS7-3Iy2ylldMN2UK_3b-14" vertex="1">
          <mxGeometry y="78" width="140" height="92" as="geometry" />
        </mxCell>
        <mxCell id="FS7-3Iy2ylldMN2UK_3b-18" value="CATEGORIA" style="swimlane;fontStyle=0;childLayout=stackLayout;horizontal=1;startSize=26;fillColor=none;horizontalStack=0;resizeParent=1;resizeParentMax=0;resizeLast=0;collapsible=1;marginBottom=0;" parent="1" vertex="1">
          <mxGeometry x="-230" y="-710" width="140" height="144" as="geometry" />
        </mxCell>
        <mxCell id="FS7-3Iy2ylldMN2UK_3b-19" value="+ ID" style="text;strokeColor=none;fillColor=none;align=left;verticalAlign=top;spacingLeft=4;spacingRight=4;overflow=hidden;rotatable=0;points=[[0,0.5],[1,0.5]];portConstraint=eastwest;" parent="FS7-3Iy2ylldMN2UK_3b-18" vertex="1">
          <mxGeometry y="26" width="140" height="26" as="geometry" />
        </mxCell>
        <mxCell id="FS7-3Iy2ylldMN2UK_3b-21" value="+Nombre&#xa;+Imagen" style="text;strokeColor=none;fillColor=none;align=left;verticalAlign=top;spacingLeft=4;spacingRight=4;overflow=hidden;rotatable=0;points=[[0,0.5],[1,0.5]];portConstraint=eastwest;" parent="FS7-3Iy2ylldMN2UK_3b-18" vertex="1">
          <mxGeometry y="52" width="140" height="92" as="geometry" />
        </mxCell>
        <mxCell id="FS7-3Iy2ylldMN2UK_3b-22" value="Comentarios" style="swimlane;fontStyle=0;childLayout=stackLayout;horizontal=1;startSize=26;fillColor=none;horizontalStack=0;resizeParent=1;resizeParentMax=0;resizeLast=0;collapsible=1;marginBottom=0;" parent="1" vertex="1">
          <mxGeometry x="-760" y="-640" width="140" height="144" as="geometry" />
        </mxCell>
        <mxCell id="FS7-3Iy2ylldMN2UK_3b-23" value="+ ID" style="text;strokeColor=none;fillColor=none;align=left;verticalAlign=top;spacingLeft=4;spacingRight=4;overflow=hidden;rotatable=0;points=[[0,0.5],[1,0.5]];portConstraint=eastwest;" parent="FS7-3Iy2ylldMN2UK_3b-22" vertex="1">
          <mxGeometry y="26" width="140" height="26" as="geometry" />
        </mxCell>
        <mxCell id="FS7-3Iy2ylldMN2UK_3b-24" value="+ID CLIENTE&#xa;+ ID ARTÍCULO&#xa;+Fecha y Hora" style="text;strokeColor=none;fillColor=none;align=left;verticalAlign=top;spacingLeft=4;spacingRight=4;overflow=hidden;rotatable=0;points=[[0,0.5],[1,0.5]];portConstraint=eastwest;" parent="FS7-3Iy2ylldMN2UK_3b-22" vertex="1">
          <mxGeometry y="52" width="140" height="92" as="geometry" />
        </mxCell>
        <mxCell id="quciw-ZrSuqigvUfubhi-3" value="" style="endArrow=classic;html=1;rounded=0;exitX=1;exitY=0.146;exitDx=0;exitDy=0;exitPerimeter=0;entryX=0;entryY=0.241;entryDx=0;entryDy=0;entryPerimeter=0;" edge="1" parent="1" source="FS7-3Iy2ylldMN2UK_3b-8" target="FS7-3Iy2ylldMN2UK_3b-13">
          <mxGeometry width="50" height="50" relative="1" as="geometry">
            <mxPoint x="-570" y="-760" as="sourcePoint" />
            <mxPoint x="-580" y="-760" as="targetPoint" />
          </mxGeometry>
        </mxCell>
        <mxCell id="quciw-ZrSuqigvUfubhi-4" value="" style="endArrow=classic;html=1;rounded=0;exitX=1;exitY=0.026;exitDx=0;exitDy=0;exitPerimeter=0;entryX=0;entryY=0.359;entryDx=0;entryDy=0;entryPerimeter=0;" edge="1" parent="1" source="FS7-3Iy2ylldMN2UK_3b-10" target="FS7-3Iy2ylldMN2UK_3b-17">
          <mxGeometry width="50" height="50" relative="1" as="geometry">
            <mxPoint x="-290" y="-860" as="sourcePoint" />
            <mxPoint x="-230" y="-920" as="targetPoint" />
          </mxGeometry>
        </mxCell>
        <mxCell id="quciw-ZrSuqigvUfubhi-5" value="" style="endArrow=classic;html=1;rounded=0;entryX=0.5;entryY=0;entryDx=0;entryDy=0;" edge="1" parent="1" target="FS7-3Iy2ylldMN2UK_3b-22">
          <mxGeometry width="50" height="50" relative="1" as="geometry">
            <mxPoint x="-690" y="-690" as="sourcePoint" />
            <mxPoint x="-625" y="-690" as="targetPoint" />
            <Array as="points" />
          </mxGeometry>
        </mxCell>
        <mxCell id="quciw-ZrSuqigvUfubhi-6" value="" style="endArrow=classic;html=1;rounded=0;" edge="1" parent="1">
          <mxGeometry width="50" height="50" relative="1" as="geometry">
            <mxPoint x="-160.5" y="-850" as="sourcePoint" />
            <mxPoint x="-160.5" y="-710" as="targetPoint" />
          </mxGeometry>
        </mxCell>
      </root>
    </mxGraphModel>
  </diagram>
</mxfile>
